<svg width="28" height="40" viewBox="0 0 28 40" fill="none" xmlns="http://www.w3.org/2000/svg">
<path d="M14.272 39.535C11.6091 39.535 9.23665 39.147 7.20313 38.3225C5.16961 37.5465 3.23292 36.237 1.34465 34.491C1.10257 34.297 0.860482 34.006 0.71523 33.6665C0.569979 33.327 0.473145 32.9875 0.473145 32.648C0.473145 32.066 0.666815 31.5325 1.10257 31.096C1.53832 30.6595 2.02249 30.417 2.65192 30.417C3.13609 30.417 3.62026 30.611 4.0076 30.999C5.4117 32.357 6.96104 33.424 8.60723 34.1515C10.2534 34.879 12.0933 35.2185 14.1752 35.2185C15.773 35.2185 17.1771 34.976 18.4843 34.4425C19.7432 33.9575 20.7599 33.23 21.5346 32.3085C22.3093 31.387 22.6966 30.3685 22.6966 29.156C22.6966 27.701 22.3093 26.4885 21.4862 25.567C20.6631 24.6455 19.5495 23.821 18.097 23.239C16.6445 22.6085 14.9983 22.075 13.11 21.59C11.4638 21.202 9.91449 20.717 8.51039 20.135C7.10629 19.553 5.89586 18.874 4.8791 18.001C3.86234 17.128 3.03925 16.1095 2.50666 14.897C1.92566 13.6845 1.68357 12.2295 1.68357 10.5805C1.68357 8.49501 2.21616 6.7005 3.32975 5.1485C4.39493 3.59651 5.94428 2.38401 7.88097 1.51101C9.81766 0.638006 12.0448 0.201508 14.5625 0.201508C16.7897 0.201508 18.8717 0.541006 20.8568 1.26851C22.8419 1.99601 24.4396 3.01451 25.6017 4.27551C26.3279 4.9545 26.6668 5.6335 26.6668 6.361C26.6668 6.846 26.4247 7.331 25.989 7.816C25.5532 8.2525 25.0206 8.495 24.4396 8.495C24.0523 8.495 23.665 8.3495 23.3745 8.107C22.745 7.428 21.9704 6.79751 21.002 6.26401C20.0337 5.73051 19.0169 5.29401 17.9033 4.95451C16.7897 4.61501 15.6761 4.46951 14.5625 4.46951C12.9163 4.46951 11.4154 4.71201 10.1566 5.19701C8.89773 5.68201 7.88097 6.36101 7.20313 7.23401C6.47687 8.10701 6.13795 9.17401 6.13795 10.3865C6.13795 11.7445 6.52529 12.9085 7.34838 13.7815C8.12305 14.6545 9.23665 15.382 10.5439 15.964C11.8996 16.546 13.3521 17.031 14.9983 17.4675C16.7897 17.904 18.4359 18.389 19.9368 18.971C21.4378 19.553 22.745 20.232 23.8102 21.0565C24.8754 21.881 25.7469 22.948 26.3279 24.2575C26.9089 25.567 27.2478 27.119 27.2478 29.0105C27.2478 30.999 26.6668 32.7935 25.5532 34.3455C24.4396 35.8975 22.8903 37.1585 20.9536 38.0315C18.9201 39.0985 16.6929 39.535 14.272 39.535Z" fill="black"/>
</svg>
